#!OML:ASF E:\emotionWalksFemale\Project 1\Capture day 1\Session 1\Female1.ASF
:FULLY-SPECIFIED
:DEGREES
2212
root 10.3604 15.2243 -29.6414 -180.251 -176.419 -177.87
lowerback 9.20362 -0.925122 -0.567505
upperback -4.38135 -1.30874 0.124115
thorax -9.84175 -0.5907 0.681809
lowerneck -4.39463 -0.424134 -1.21304
upperneck 14.5099 -0.648674 1.24218
head 5.08755 -0.309708 0.548391
rclavicle -2.08972e-014 -9.14409e-015
rhumerus -42.694 -1.82265 -75.9351
rradius 36.8898
rwrist 16.2964
rhand 178.467 -234.585
rfingers 7.12502
rthumb -155.879 -263.089
lclavicle -2.08972e-014 -9.14409e-015
lhumerus -44.6677 11.4033 76.0923
lradius 40.0391
lwrist -13.5397
lhand -11.9169 -33.6653
lfingers 7.12502
lthumb 14.1371 -4.16622
rfemur -36.4628 15.1259 18.8737
rtibia 36.8056
rfoot -8.12886 -12.7866
rtoes -16.1614
lfemur -3.63047 -7.05966 -33.1506
ltibia 26.1586
lfoot -22.5882 6.14142
ltoes -13.7437
2213
root 10.3623 15.2301 -29.6264 -180.259 -176.428 -177.962
lowerback 9.12737 -0.940459 -0.421212
upperback -4.35283 -1.3118 0.0961974
thorax -9.76898 -0.603315 0.568313
lowerneck -4.45605 -0.427047 -1.1772
upperneck 14.5301 -0.663771 1.29949
head 5.10447 -0.311359 0.559304
rclavicle 6.80837e-015 -1.70955e-014
rhumerus -42.7137 -1.91556 -76.0049
rradius 36.977
rwrist 16.5299
rhand 178.592 -234.888
rfingers 7.12502
rthumb -155.759 -263.375
lclavicle 6.80837e-015 -1.70955e-014
lhumerus -44.7011 11.4436 75.9873
lradius 40.0108
lwrist -13.6225
lhand -11.9101 -33.4942
lfingers 7.12502
lthumb 14.1436 -3.99567
rfemur -36.5054 15.3584 18.8647
rtibia 36.6651
rfoot -8.01806 -12.8054
rtoes -14.8786
lfemur -3.46009 -7.07625 -33.0735
ltibia 25.968
lfoot -22.5354 6.11023
ltoes -13.8346
2214
root 10.3634 15.2245 -29.6151 -180.265 -176.433 -177.985
lowerback 9.04361 -0.931869 -0.374713
upperback -4.24091 -1.2947 0.0781125
thorax -9.59788 -0.599933 0.516762
lowerneck -4.76841 -0.404099 -1.20866
upperneck 14.6084 -0.639105 1.38682
head 5.18186 -0.293994 0.592632
rclavicle 1.11568e-014 -4.37326e-015
rhumerus -42.4863 -2.10671 -75.9791
rradius 36.9521
rwrist 16.8186
rhand 178.99 -235.286
rfingers 7.12502
rthumb -155.378 -263.722
lclavicle 1.11568e-014 -4.37326e-015
lhumerus -44.479 11.5131 76.0085
lradius 39.9476
lwrist -13.6658
lhand -11.9425 -33.4182
lfingers 7.12502
lthumb 14.1124 -3.91748
rfemur -36.5265 15.4767 18.8593
rtibia 36.5441
rfoot -7.9781 -12.7718
rtoes -15.0407
lfemur -3.31957 -7.0735 -33.0706
ltibia 25.795
lfoot -22.4505 6.19354
ltoes -14.2767
2215
root 10.3661 15.223 -29.6043 -180.291 -176.5 -177.917
lowerback 9.05553 -0.98666 -0.473439
upperback -4.24399 -1.37591 0.138233
thorax -9.60368 -0.630672 0.650612
lowerneck -4.74095 -0.328573 -1.47383
upperneck 14.6303 -0.523027 1.47721
head 5.1832 -0.245703 0.671432
rclavicle -3.10601e-015 1.03368e-014
rhumerus -42.3668 -1.86541 -75.939
rradius 36.8771
rwrist 16.768
rhand 179.141 -235.4
rfingers 7.12502
rthumb -155.232 -263.816
lclavicle -3.10601e-015 1.03368e-014
lhumerus -44.5291 11.8087 76.0487
lradius 39.9411
lwrist -13.6112
lhand -11.6704 -32.8921
lfingers 7.12502
lthumb 14.3746 -3.40976
rfemur -36.5201 15.5343 18.7355
rtibia 36.4029
rfoot -8.31876 -12.7737
rtoes -13.3847
lfemur -3.21026 -7.14449 -33.1779
ltibia 25.7212
lfoot -22.4197 6.27596
ltoes -14.8085
2216
root 10.3703 15.2263 -29.5915 -180.324 -176.679 -177.828
lowerback 9.14745 -0.983465 -0.459967
upperback -4.31265 -1.38018 0.0339883
thorax -9.7366 -0.636442 0.535427
lowerneck -4.551 -0.406269 -1.37271
upperneck 14.5668 -0.636646 1.45059
head 5.13256 -0.298377 0.639983
rclavicle -2.12451e-014 8.34896e-015
rhumerus -42.5261 -2.11816 -75.8675
rradius 36.7808
rwrist 16.7465
rhand 179.113 -234.899
rfingers 7.12502
rthumb -155.26 -263.319
lclavicle -2.12451e-014 8.34896e-015
lhumerus -44.5601 11.7217 75.9875
lradius 39.7679
lwrist -13.7098
lhand -11.6692 -32.8538
lfingers 7.12502
lthumb 14.3757 -3.37162
rfemur -36.485 15.5232 18.5767
rtibia 36.2293
rfoot -8.56188 -12.9001
rtoes -12.744
lfemur -3.09063 -7.29898 -33.3161
ltibia 25.6891
lfoot -22.4582 6.20056
ltoes -14.4441
